<?xml version="1.0" standalone="no"?>
<!DOCTYPE svg PUBLIC "-//W3C//DTD SVG 20010904//EN"
 "http://www.w3.org/TR/2001/REC-SVG-20010904/DTD/svg10.dtd">
<svg version="1.0" xmlns="http://www.w3.org/2000/svg"
 width="531.000000pt" height="441.000000pt" viewBox="0 0 531.000000 441.000000"
 preserveAspectRatio="xMidYMid meet">

<g transform="translate(0.000000,441.000000) scale(0.100000,-0.100000)"
fill="#000000" stroke="none">
<path d="M0 2205 l0 -2205 2655 0 2655 0 0 2205 0 2205 -2655 0 -2655 0 0
-2205z m2970 1895 c465 -58 912 -242 1246 -513 100 -82 273 -260 345 -357 160
-214 265 -444 321 -700 20 -92 22 -133 22 -335 0 -200 -2 -243 -22 -328 -170
-760 -812 -1346 -1677 -1532 -349 -75 -749 -75 -1106 1 -252 53 -566 176 -769
301 -487 301 -801 727 -912 1236 -30 138 -33 497 -5 621 9 44 14 83 10 87 -5
4 -37 30 -72 58 -125 99 -216 230 -268 386 -24 73 -27 94 -27 235 -1 178 15
247 86 380 113 212 310 361 543 411 87 19 265 16 350 -5 130 -34 265 -106 352
-189 l43 -41 107 52 c288 138 619 224 948 246 94 6 391 -3 485 -14z"/>
<path d="M1660 2453 c-247 -21 -457 -135 -574 -312 -66 -99 -89 -176 -84 -283
4 -75 9 -96 41 -161 62 -126 185 -219 348 -263 78 -21 249 -23 334 -5 276 60
493 253 541 483 29 140 -16 277 -125 382 -114 108 -310 173 -481 159z"/>
<path d="M3485 2449 c-303 -47 -497 -267 -457 -521 37 -243 274 -452 573 -504
227 -39 444 21 579 162 84 87 113 153 118 270 5 109 -16 188 -77 281 -140 216
-466 355 -736 312z"/>
<path d="M2399 1487 c-59 -31 -95 -98 -80 -151 16 -58 191 -274 245 -303 42
-22 133 -22 179 1 39 19 194 207 230 279 34 66 4 138 -74 177 -34 18 -59 20
-247 20 -198 0 -211 -1 -253 -23z"/>
</g>
</svg>
